<svg xmlns="http://www.w3.org/2000/svg" xmlns:xlink="http://www.w3.org/1999/xlink" viewBox="0 0 422.91 80.16"><defs><style>.cls-1{fill:url(#linear-gradient);}</style><linearGradient id="linear-gradient" x1="407.06" y1="-81.84" x2="89.64" y2="101.42" gradientUnits="userSpaceOnUse"><stop offset="0" stop-color="#838bc5"/><stop offset="0.05" stop-color="#767db1"/><stop offset="0.17" stop-color="#575c82"/><stop offset="0.29" stop-color="#3c405a"/><stop offset="0.42" stop-color="#262939"/><stop offset="0.56" stop-color="#151720"/><stop offset="0.69" stop-color="#090a0e"/><stop offset="0.84" stop-color="#020203"/><stop offset="1"/></linearGradient></defs><title>taologo_outlines</title><g id="Layer_2" data-name="Layer 2"><g id="Layer_1-2" data-name="Layer 1"><path class="cls-1" d="M31,61.23H14.72v-47H0V1H45.69V14.27H31Z"/><path class="cls-1" d="M89.18,61.23l-3-11.3H66.62l-3.05,11.3H45.68L65.35.7H87.08L107,61.23ZM82.83,36.57l-2.6-9.89c-.6-2.2-1.34-5.05-2.2-8.54s-1.44-6-1.72-7.5q-.36,2.1-1.46,6.93T70,36.57Z"/><path class="cls-1" d="M167.8,31q0,15.21-7.46,23.13t-21.85,7.92q-14.19,0-21.76-8t-7.56-23.18q0-15,7.52-23T138.57,0Q153,0,160.38,7.88T167.8,31Zm-41.48,0q0,17.47,12.17,17.48,6.18,0,9.17-4.25t3-13.23q0-9-3-13.34t-9.05-4.31Q126.32,13.36,126.32,31Z"/><path class="cls-1" d="M234,61.23H212.61l-22-42.47h-.37q.78,10,.78,15.3V61.23H176.58V1h21.27l21.94,41.89H220q-.58-9.11-.58-14.64V1H234Z"/><path class="cls-1" d="M244.89,61.23V1h16.37V61.23Z"/><path class="cls-1" d="M329.58,61.23H308.22l-22-42.47h-.37q.78,10,.78,15.3V61.23H272.18V1h21.28l21.93,41.89h.25q-.58-9.11-.58-14.64V1h14.52Z"/><path class="cls-1" d="M335.75,80.16a39.68,39.68,0,0,1-8.45-.87V66.63c.88.17,1.81.35,2.8.56a15.57,15.57,0,0,0,3.22.31c2.69,0,4.62-.81,5.77-2.43s1.73-4.4,1.73-8.33V1h16.37V55.33q0,12.26-5.36,18.54T335.75,80.16Z"/><path class="cls-1" d="M405.1,61.23l-3-11.3H382.54l-3.05,11.3H361.6L381.27.7H403l19.91,60.53Zm-6.35-24.66-2.6-9.89c-.6-2.2-1.34-5.05-2.2-8.54s-1.44-6-1.72-7.5q-.36,2.1-1.46,6.93t-4.84,19Z"/></g></g></svg>