<svg xmlns="http://www.w3.org/2000/svg" viewBox="0 0 127.53 23.71"><defs><style>.cls-1{fill:#fff;}.cls-2{fill:#d7d9ec;}</style></defs><title>taoninja</title><g id="Layer_2" data-name="Layer 2"><g id="Layer_7" data-name="Layer 7"><path class="cls-1" d="M9.25,18.33H4.39v-14H0v-4H13.63v4H9.25Z"/><path class="cls-1" d="M26.61,18.33,25.73,15H19.88L19,18.33H13.63L19.5.27H26l5.94,18.06ZM24.72,11l-.78-3q-.27-1-.66-2.55c-.25-1-.42-1.78-.51-2.23-.07.41-.22,1.1-.43,2.06s-.7,2.85-1.45,5.67Z"/><path class="cls-1" d="M50.08,9.31c0,3-.75,5.33-2.23,6.91s-3.66,2.36-6.52,2.36a8.49,8.49,0,0,1-6.49-2.38q-2.27-2.37-2.26-6.91c0-3,.75-5.28,2.24-6.86S38.5.06,41.35.06s5,.78,6.51,2.35S50.08,6.28,50.08,9.31Zm-12.38,0q0,5.22,3.63,5.22a3.09,3.09,0,0,0,2.73-1.27A6.88,6.88,0,0,0,45,9.31a7,7,0,0,0-.91-4,3.09,3.09,0,0,0-2.7-1.28Q37.71,4.05,37.7,9.31Z"/><path class="cls-2" d="M71.15,18.06H64.77L58.2,5.39h-.11c.16,2,.24,3.51.24,4.57v8.1H54V.07h6.35l6.55,12.51H67c-.12-1.82-.17-3.27-.17-4.37V.07h4.33Z"/><path class="cls-2" d="M74.41,18.06V.07h4.88v18Z"/><path class="cls-2" d="M99.68,18.06H93.3L86.73,5.39h-.11c.16,2,.24,3.51.24,4.57v8.1H82.55V.07H88.9l6.54,12.51h.08c-.12-1.82-.17-3.27-.17-4.37V.07h4.33Z"/><path class="cls-2" d="M101.52,23.71A11.33,11.33,0,0,1,99,23.45V19.68c.26,0,.54.1.83.16a4.89,4.89,0,0,0,1,.09,2,2,0,0,0,1.73-.72,4.51,4.51,0,0,0,.51-2.49V.07h4.89V16.3a8.29,8.29,0,0,1-1.6,5.53A5.94,5.94,0,0,1,101.52,23.71Z"/><path class="cls-2" d="M122.21,18.06l-.88-3.37h-5.85l-.91,3.37h-5.34L115.1,0h6.49l5.94,18.06Zm-1.89-7.35-.78-3c-.18-.65-.4-1.5-.65-2.54s-.43-1.79-.51-2.24c-.08.41-.22,1.1-.44,2.06s-.7,2.85-1.45,5.68Z"/></g></g></svg>